<?xml version="1.0" standalone="no"?>
<!DOCTYPE svg PUBLIC "-//W3C//DTD SVG 20010904//EN"
 "http://www.w3.org/TR/2001/REC-SVG-20010904/DTD/svg10.dtd">
<svg version="1.0" xmlns="http://www.w3.org/2000/svg"
 width="48.000000pt" height="48.000000pt" viewBox="0 0 48.000000 48.000000"
 preserveAspectRatio="xMidYMid meet">
<metadata>
Created by potrace 1.16, written by Peter Selinger 2001-2019
</metadata>
<g transform="translate(0.000000,48.000000) scale(0.100000,-0.100000)"
fill="#000000" stroke="none">
<path d="M20 460 c-19 -19 -20 -33 -20 -220 0 -187 1 -201 20 -220 19 -19 33
-20 220 -20 187 0 201 1 220 20 19 19 20 33 20 220 0 187 -1 201 -20 220 -19
19 -33 20 -220 20 -187 0 -201 -1 -220 -20z m136 -105 c5 -13 8 -13 27 0 31
21 63 18 81 -7 13 -18 24 -22 56 -19 36 2 40 0 46 -25 4 -16 2 -53 -4 -83 -7
-30 -10 -57 -7 -60 3 -2 16 6 29 18 32 30 46 9 19 -27 -28 -38 -68 -51 -90
-29 -14 14 -15 23 -5 67 14 62 15 90 3 90 -17 0 -51 -67 -54 -106 -3 -48 -13
-64 -38 -64 -23 0 -24 19 -4 97 21 79 20 115 -2 111 -26 -4 -56 -73 -62 -142
-5 -52 -9 -61 -27 -64 -13 -2 -24 4 -28 13 -5 15 8 140 20 177 6 21 -13 33
-31 18 -20 -16 -27 3 -9 28 18 26 71 30 80 7z"/>
</g>
</svg>
